<svg
                      xmlns="http://www.w3.org/2000/svg"
                      width="20"
                      height="16"
                      viewBox="0 0 20 16"
                      fill="none"
                    >
                      <path
                        d="M7.03401 11.9819H17.0555C17.4602 11.9819 17.8132 11.6926 17.8132 11.2747C17.8132 10.8569 17.4602 10.5676 17.0555 10.5676H7.22342C6.80155 10.5676 6.54326 10.2863 6.483 9.87644L6.35385 9.04068H17.1244C18.4331 9.04068 19.1218 8.29332 19.3198 7.07986L19.9656 3.03767C19.9828 2.92516 20 2.78855 20 2.70819C20 2.24209 19.647 1.92868 19.0616 1.92868H5.24322L5.10547 1.0447C5.00215 0.353591 4.70943 0 3.75377 0H0.792079C0.370211 0 0 0.345555 0 0.755399C0 1.15721 0.370211 1.50276 0.792079 1.50276H3.50409L4.84718 10.0372C5.03659 11.2426 5.72536 11.9819 7.03401 11.9819ZM18.235 3.34304L17.684 6.93521C17.6238 7.35309 17.3827 7.61828 16.9522 7.61828L6.13 7.62632L5.46707 3.34304H18.235ZM7.73138 16C8.56651 16 9.22084 15.3812 9.22084 14.6097C9.22084 13.8302 8.56651 13.2115 7.73138 13.2115C6.90486 13.2115 6.24193 13.8302 6.24193 14.6097C6.24193 15.3812 6.90486 16 7.73138 16ZM15.6952 16C16.5303 16 17.1933 15.3812 17.1933 14.6097C17.1933 13.8302 16.5303 13.2115 15.6952 13.2115C14.8687 13.2115 14.1972 13.8302 14.1972 14.6097C14.1972 15.3812 14.8687 16 15.6952 16Z"
                        fill="#F5F5F5"
                      ></path>
                    </svg>