<svg
                    xmlns="http://www.w3.org/2000/svg"
                    width="12"
                    height="11"
                    viewBox="0 0 12 11"
                    fill="none"
                  >
                    <path
                      d="M0.591523 4.34451C-0.331015 4.73293 -0.138066 5.92036 0.917125 5.92591L5.40319 5.94256C5.49364 5.94256 5.52379 5.97585 5.52379 6.05908L5.53585 10.1596C5.53585 11.114 6.83222 11.3304 7.29048 10.4093L11.8549 1.32043C12.3433 0.349399 11.5233 -0.294259 10.5163 0.132997L0.591523 4.34451ZM2.02658 4.92713C1.97835 4.92713 1.96026 4.87719 2.01452 4.84945L10.5163 1.27049C10.5887 1.24275 10.6309 1.28159 10.5947 1.34818L6.69957 9.14975C6.67545 9.20524 6.61515 9.19414 6.61515 9.1442L6.63927 5.40988C6.63927 5.0714 6.46441 4.90494 6.08454 4.90494L2.02658 4.92713Z"
                      fill="#737373"
                    ></path>
                  </svg>