<svg
                      xmlns="http://www.w3.org/2000/svg"
                      width="16"
                      height="16"
                      viewBox="0 0 16 16"
                      fill="none"
                    >
                      <path
                        d="M8.00455 8.03852C10.2058 8.03852 11.9886 6.20653 11.9886 3.96362C11.9886 1.75495 10.2058 0 8.00455 0C5.81239 0 4.01137 1.78063 4.02047 3.98074C4.02956 6.21509 5.8033 8.03852 8.00455 8.03852ZM8.00455 6.5404C6.74929 6.5404 5.68505 5.41894 5.68505 3.98074C5.67595 2.57678 6.74019 1.49813 8.00455 1.49813C9.278 1.49813 10.324 2.55966 10.324 3.96362C10.324 5.40182 9.2689 6.5404 8.00455 6.5404ZM2.3286 16H13.6714C15.245 16 16 15.5292 16 14.519C16 12.1648 12.88 9.03157 8.00455 9.03157C3.12905 9.03157 0 12.1648 0 14.519C0 15.5292 0.754974 16 2.3286 16ZM2.04662 14.5019C1.82831 14.5019 1.74645 14.4334 1.74645 14.2793C1.74645 12.9695 3.99318 10.5297 8.00455 10.5297C12.0068 10.5297 14.2536 12.9695 14.2536 14.2793C14.2536 14.4334 14.1717 14.5019 13.9534 14.5019H2.04662Z"
                        fill="#F5F5F5"
                      ></path>
                    </svg>